# xmcd CD database file
#
# Track frame offsets:
#	182
#	20652
#	40882
#	76837
#	109065
#	136165
#	151175
#	170817
#	202217
#	217515
#	243960
#	265850
#
# Disc length: 3791 seconds
#
# Revision: 3
# Processed by: cddbd v1.5.2PL0 Copyright (c) Steve Scherf et al.
# Submitted via: CDex 1.51
#
DISCID=9a0ecd0c
DTITLE=Barry White - Barry White - Gold [CD1)
DYEAR=1993
DGENRE=Disco
TTITLE0=You're the first, the las, my everything
TTITLE1=Can't get enough of your love babe
TTITLE2=Never gonna give you up
TTITLE3=I'm gonna love you just a little bit more, babe
TTITLE4=I'll do for you anything you want me to do
TTITLE5=Don't make me wait too long
TTITLE6=I'm qualified to satisfy you
TTITLE7=It's ecstasy when you lay down next to me
TTITLE8=Bring back my yesterday
TTITLE9=I've found someone
TTITLE10=Walkin' in the rain with the one I love
TTITLE11=Love's theme
EXTD=YEAR: 1993
EXTT0=
EXTT1=
EXTT2=
EXTT3=
EXTT4=
EXTT5=
EXTT6=
EXTT7=
EXTT8=
EXTT9=
EXTT10=
EXTT11=
PLAYORDER=
